<mxfile host="app.diagrams.net" modified="2023-10-18T17:59:07.953Z" agent="Mozilla/5.0 (Windows NT 10.0; Win64; x64) AppleWebKit/537.36 (KHTML, like Gecko) Chrome/118.0.0.0 Safari/537.36" etag="OWCMGwA3uyaH1PddkmfC" version="22.0.4" type="github">
  <diagram name="PÃ¡gina-1" id="Q3G7dm3WNLWxCCLV8ihp">
    <mxGraphModel dx="1473" dy="1108" grid="1" gridSize="10" guides="1" tooltips="1" connect="1" arrows="1" fold="1" page="1" pageScale="1" pageWidth="1169" pageHeight="827" math="0" shadow="0">
      <root>
        <mxCell id="0" />
        <mxCell id="1" parent="0" />
        <mxCell id="uxGj2zTaMkeRdqneWBlQ-23" style="edgeStyle=orthogonalEdgeStyle;rounded=0;orthogonalLoop=1;jettySize=auto;html=1;" edge="1" parent="1" source="uxGj2zTaMkeRdqneWBlQ-18" target="uxGj2zTaMkeRdqneWBlQ-22">
          <mxGeometry relative="1" as="geometry" />
        </mxCell>
        <mxCell id="uxGj2zTaMkeRdqneWBlQ-18" value="" style="rounded=0;whiteSpace=wrap;html=1;" vertex="1" parent="1">
          <mxGeometry x="350" y="100" width="470" height="370" as="geometry" />
        </mxCell>
        <mxCell id="uxGj2zTaMkeRdqneWBlQ-1" value="Salesforce" style="ellipse;shape=cloud;whiteSpace=wrap;html=1;" vertex="1" parent="1">
          <mxGeometry x="70" y="230" width="120" height="80" as="geometry" />
        </mxCell>
        <mxCell id="uxGj2zTaMkeRdqneWBlQ-21" style="edgeStyle=orthogonalEdgeStyle;rounded=0;orthogonalLoop=1;jettySize=auto;html=1;" edge="1" parent="1" source="uxGj2zTaMkeRdqneWBlQ-3">
          <mxGeometry relative="1" as="geometry">
            <mxPoint x="670" y="270" as="targetPoint" />
          </mxGeometry>
        </mxCell>
        <mxCell id="uxGj2zTaMkeRdqneWBlQ-3" value="Querys con Apis Nativa" style="sketch=0;points=[[0,0,0],[0.25,0,0],[0.5,0,0],[0.75,0,0],[1,0,0],[0,1,0],[0.25,1,0],[0.5,1,0],[0.75,1,0],[1,1,0],[0,0.25,0],[0,0.5,0],[0,0.75,0],[1,0.25,0],[1,0.5,0],[1,0.75,0]];outlineConnect=0;fontColor=#232F3E;fillColor=#ED7100;strokeColor=#ffffff;dashed=0;verticalLabelPosition=bottom;verticalAlign=top;align=center;html=1;fontSize=12;fontStyle=0;aspect=fixed;shape=mxgraph.aws4.resourceIcon;resIcon=mxgraph.aws4.lambda;" vertex="1" parent="1">
          <mxGeometry x="440" y="246" width="48" height="48" as="geometry" />
        </mxCell>
        <mxCell id="uxGj2zTaMkeRdqneWBlQ-4" style="edgeStyle=orthogonalEdgeStyle;rounded=0;orthogonalLoop=1;jettySize=auto;html=1;entryX=0;entryY=0.5;entryDx=0;entryDy=0;entryPerimeter=0;" edge="1" parent="1" source="uxGj2zTaMkeRdqneWBlQ-1" target="uxGj2zTaMkeRdqneWBlQ-3">
          <mxGeometry relative="1" as="geometry" />
        </mxCell>
        <mxCell id="uxGj2zTaMkeRdqneWBlQ-6" style="edgeStyle=orthogonalEdgeStyle;rounded=0;orthogonalLoop=1;jettySize=auto;html=1;entryX=0.5;entryY=0.083;entryDx=0;entryDy=0;entryPerimeter=0;" edge="1" parent="1" source="uxGj2zTaMkeRdqneWBlQ-5" target="uxGj2zTaMkeRdqneWBlQ-3">
          <mxGeometry relative="1" as="geometry">
            <mxPoint x="464" y="240" as="targetPoint" />
          </mxGeometry>
        </mxCell>
        <mxCell id="uxGj2zTaMkeRdqneWBlQ-5" value="" style="sketch=0;points=[[0,0,0],[0.25,0,0],[0.5,0,0],[0.75,0,0],[1,0,0],[0,1,0],[0.25,1,0],[0.5,1,0],[0.75,1,0],[1,1,0],[0,0.25,0],[0,0.5,0],[0,0.75,0],[1,0.25,0],[1,0.5,0],[1,0.75,0]];outlineConnect=0;fontColor=#232F3E;fillColor=#E7157B;strokeColor=#ffffff;dashed=0;verticalLabelPosition=bottom;verticalAlign=top;align=center;html=1;fontSize=12;fontStyle=0;aspect=fixed;shape=mxgraph.aws4.resourceIcon;resIcon=mxgraph.aws4.eventbridge;" vertex="1" parent="1">
          <mxGeometry x="440" y="140" width="48" height="48" as="geometry" />
        </mxCell>
        <mxCell id="uxGj2zTaMkeRdqneWBlQ-17" style="edgeStyle=orthogonalEdgeStyle;rounded=0;orthogonalLoop=1;jettySize=auto;html=1;" edge="1" parent="1" source="uxGj2zTaMkeRdqneWBlQ-9" target="uxGj2zTaMkeRdqneWBlQ-10">
          <mxGeometry relative="1" as="geometry" />
        </mxCell>
        <mxCell id="uxGj2zTaMkeRdqneWBlQ-9" value="SurveyInvitation" style="rounded=0;whiteSpace=wrap;html=1;" vertex="1" parent="1">
          <mxGeometry x="518" y="630" width="120" height="60" as="geometry" />
        </mxCell>
        <mxCell id="uxGj2zTaMkeRdqneWBlQ-10" value="MessagingSession" style="rounded=0;whiteSpace=wrap;html=1;" vertex="1" parent="1">
          <mxGeometry x="210" y="630" width="120" height="60" as="geometry" />
        </mxCell>
        <mxCell id="uxGj2zTaMkeRdqneWBlQ-16" style="edgeStyle=orthogonalEdgeStyle;rounded=0;orthogonalLoop=1;jettySize=auto;html=1;entryX=1;entryY=0.5;entryDx=0;entryDy=0;" edge="1" parent="1" source="uxGj2zTaMkeRdqneWBlQ-11" target="uxGj2zTaMkeRdqneWBlQ-9">
          <mxGeometry relative="1" as="geometry" />
        </mxCell>
        <mxCell id="uxGj2zTaMkeRdqneWBlQ-11" value="MessagingSession Survey" style="rounded=0;whiteSpace=wrap;html=1;" vertex="1" parent="1">
          <mxGeometry x="820" y="550" width="120" height="60" as="geometry" />
        </mxCell>
        <mxCell id="uxGj2zTaMkeRdqneWBlQ-15" style="edgeStyle=orthogonalEdgeStyle;rounded=0;orthogonalLoop=1;jettySize=auto;html=1;entryX=1;entryY=0.5;entryDx=0;entryDy=0;" edge="1" parent="1" source="uxGj2zTaMkeRdqneWBlQ-12" target="uxGj2zTaMkeRdqneWBlQ-9">
          <mxGeometry relative="1" as="geometry" />
        </mxCell>
        <mxCell id="uxGj2zTaMkeRdqneWBlQ-12" value="MessagingSession Survey" style="rounded=0;whiteSpace=wrap;html=1;" vertex="1" parent="1">
          <mxGeometry x="820" y="630" width="120" height="60" as="geometry" />
        </mxCell>
        <mxCell id="uxGj2zTaMkeRdqneWBlQ-14" style="edgeStyle=orthogonalEdgeStyle;rounded=0;orthogonalLoop=1;jettySize=auto;html=1;entryX=1;entryY=0.5;entryDx=0;entryDy=0;" edge="1" parent="1" source="uxGj2zTaMkeRdqneWBlQ-13" target="uxGj2zTaMkeRdqneWBlQ-9">
          <mxGeometry relative="1" as="geometry" />
        </mxCell>
        <mxCell id="uxGj2zTaMkeRdqneWBlQ-13" value="MessagingSession Survey" style="rounded=0;whiteSpace=wrap;html=1;" vertex="1" parent="1">
          <mxGeometry x="820" y="710" width="120" height="60" as="geometry" />
        </mxCell>
        <mxCell id="uxGj2zTaMkeRdqneWBlQ-19" value="S3" style="sketch=0;outlineConnect=0;fontColor=#232F3E;gradientColor=none;strokeColor=#ffffff;fillColor=#232F3E;dashed=0;verticalLabelPosition=middle;verticalAlign=bottom;align=center;html=1;whiteSpace=wrap;fontSize=10;fontStyle=1;spacing=3;shape=mxgraph.aws4.productIcon;prIcon=mxgraph.aws4.s3;" vertex="1" parent="1">
          <mxGeometry x="670" y="240" width="60" height="80" as="geometry" />
        </mxCell>
        <mxCell id="uxGj2zTaMkeRdqneWBlQ-22" value="PowerBI" style="ellipse;shape=cloud;whiteSpace=wrap;html=1;" vertex="1" parent="1">
          <mxGeometry x="990" y="245" width="120" height="80" as="geometry" />
        </mxCell>
        <mxCell id="uxGj2zTaMkeRdqneWBlQ-25" style="edgeStyle=orthogonalEdgeStyle;rounded=0;orthogonalLoop=1;jettySize=auto;html=1;" edge="1" parent="1" source="uxGj2zTaMkeRdqneWBlQ-24" target="uxGj2zTaMkeRdqneWBlQ-3">
          <mxGeometry relative="1" as="geometry" />
        </mxCell>
        <mxCell id="uxGj2zTaMkeRdqneWBlQ-24" value="S3 Dotacion" style="sketch=0;outlineConnect=0;fontColor=#232F3E;gradientColor=none;strokeColor=#ffffff;fillColor=#232F3E;dashed=0;verticalLabelPosition=middle;verticalAlign=bottom;align=center;html=1;whiteSpace=wrap;fontSize=10;fontStyle=1;spacing=3;shape=mxgraph.aws4.productIcon;prIcon=mxgraph.aws4.s3;" vertex="1" parent="1">
          <mxGeometry x="439" y="374" width="50" height="80" as="geometry" />
        </mxCell>
      </root>
    </mxGraphModel>
  </diagram>
</mxfile>
